<?xml version="1.0" standalone="no"?>
<!DOCTYPE svg PUBLIC "-//W3C//DTD SVG 20010904//EN"
 "http://www.w3.org/TR/2001/REC-SVG-20010904/DTD/svg10.dtd">
<svg version="1.0" xmlns="http://www.w3.org/2000/svg"
 width="46.000000pt" height="46.000000pt" viewBox="0 0 46.000000 46.000000"
 preserveAspectRatio="xMidYMid meet">
<metadata>
Created by potrace 1.16, written by Peter Selinger 2001-2019
</metadata>
<g transform="translate(0.000000,46.000000) scale(0.100000,-0.100000)"
fill="#000000" stroke="none">
<path d="M41 419 l-31 -31 0 -161 0 -161 27 -28 27 -28 166 0 166 0 27 28 27
28 0 165 0 165 -28 27 -28 27 -161 0 -161 0 -31 -31z m339 -39 c18 -18 20 -33
20 -150 0 -174 4 -170 -170 -170 -177 0 -173 -4 -168 177 4 170 -4 163 170
163 115 0 130 -2 148 -20z"/>
</g>
</svg>
